<svg width="156" height="52" viewBox="0 0 156 52" fill="none" xmlns="http://www.w3.org/2000/svg" style="--color-main:#5f948f; --color-secondary:#FFFFFF; max-height: 80px; max-width: 120px;"><path d="M6.44416 27.0197C9.88847 27.9026 9.07916 26.7957 12.9152 26.3875C16.7516 25.9793 16.4092 27.1298 23.0963 28.0697C29.7832 29.0096 28.924 27.0463 33.751 26.3875C38.5785 25.7287 36.4328 30.1696 41.0739 30.1696C45.7148 30.1696 45.7927 27.0198 50.3235 27.0198C54.8543 27.0198 56.2778 39.4939 64.6253 38.668C72.9729 37.8421 73.4411 27.2647 79.4826 27.2647C85.5241 27.2647 88.1336 34.3695 94.6473 33.6537C101.162 32.9379 103.709 28.4039 110.223 28.4039C116.737 28.4039 117.422 39.2737 125.234 39.2737C133.046 39.2737 134.585 34.7036 139.536 30.8152C144.487 26.9268 153 26.1369 153 26.1369C153 26.1369 144.487 25.3471 139.536 21.4586C134.585 17.5701 133.046 13 125.234 13C117.422 13 116.737 23.8699 110.223 23.8699C103.709 23.8699 101.162 19.3359 94.6473 18.6201C88.1336 17.9043 85.5241 25.0091 79.4826 25.0091C73.4411 25.0091 72.9729 14.4316 64.6254 13.6057C56.2779 12.7798 54.8543 25.254 50.3235 25.254C45.7927 25.254 45.7148 22.1041 41.0739 22.1041C36.4328 22.1041 38.5785 26.5451 33.751 25.8862C28.924 25.2274 29.7832 23.2642 23.0963 24.204C16.4092 25.1439 16.7516 26.2944 12.9152 25.8862C9.07916 25.478 9.88847 24.3711 6.44416 25.254C3.05395 26.1231 3.00097 26.1366 3.00015 26.1369C3.00097 26.1371 3.05395 26.1507 6.44416 27.0197Z" fill="var(--color-main)" fill-opacity="0.3"></path><path d="M149.556 25.254C146.112 24.3711 146.921 25.478 143.085 25.8862C139.248 26.2944 139.591 25.1439 132.904 24.204C126.217 23.2642 127.076 25.2274 122.249 25.8862C117.422 26.5451 119.567 22.1041 114.926 22.1041C110.285 22.1041 110.207 25.254 105.676 25.254C101.146 25.254 99.7222 12.7798 91.3747 13.6057C83.0271 14.4316 82.5589 25.0091 76.5174 25.0091C70.4759 25.0091 67.8664 17.9043 61.3527 18.6201C54.8385 19.3359 52.2909 23.8699 45.7769 23.8699C39.263 23.8699 38.5778 13 30.7658 13C22.9536 13 21.4145 17.5701 16.4642 21.4586C11.5134 25.347 3 26.1369 3 26.1369C3 26.1369 11.5134 26.9267 16.4642 30.8151C21.4145 34.7036 22.9535 39.2737 30.7658 39.2737C38.5778 39.2737 39.263 28.4039 45.7769 28.4039C52.2909 28.4039 54.8384 32.9378 61.3527 33.6537C67.8664 34.3694 70.4759 27.2646 76.5174 27.2646C82.5589 27.2646 83.0271 37.8421 91.3746 38.668C99.7221 39.4939 101.146 27.0197 105.676 27.0197C110.207 27.0198 110.285 30.1696 114.926 30.1696C119.567 30.1696 117.422 25.7287 122.249 26.3875C127.076 27.0463 126.217 29.0096 132.904 28.0697C139.591 27.1299 139.248 25.9793 143.085 26.3875C146.921 26.7957 146.112 27.9026 149.556 27.0198C152.946 26.1507 152.999 26.1371 153 26.1369C152.999 26.1366 152.946 26.123 149.556 25.254Z" fill="var(--color-main)" fill-opacity="0.7"></path></svg>