<svg id="Layer_1" enable-background="new 0 0 96 96" viewBox="0 0 96 96" xmlns="http://www.w3.org/2000/svg"><g><g><path d="m81.07 17.95c-.16-1.59-1.43-2.86-3.02-3.03l-23.4-2.49c-.12-.01-.24-.01-.36-.01-.9 0-1.76.35-2.4.99l-38.48 38.48c-.64.64-.99 1.49-.99 2.4s.35 1.76.99 2.41l25.9 25.89c1.32 1.32 3.48 1.32 4.8 0l38.48-38.48c.73-.73 1.09-1.73.98-2.76zm-21.85 33.58c-1.1-.01-2.01-.87-2.02-1.97-.03-2.35-.92-4.51-2.5-6.1-1.74-1.73-4.13-2.61-6.74-2.48-.38.02-.76.06-1.14.13l4.04 4.03c.78.78.78 2.05 0 2.83-.39.39-.91.59-1.42.59s-1.02-.2-1.41-.59l-5.3-5.3c-.7401.46-1.4301 1.01-2.07 1.65-.64.64-1.19 1.34-1.65 2.07l5.3 5.3c.78.78.78 2.04 0 2.82-.39.4-.9.59-1.41.59s-1.02-.19-1.41-.59l-4.04-4.04c-.48 2.89.29 5.82 2.36 7.89 1.58 1.58 3.74 2.47 6.09 2.49 1.1.02 1.99.92 1.97 2.03-.01 1.09-.9 1.97-2 1.97 0 0-.01 0-.02 0-3.4-.04-6.55-1.34-8.87-3.67-3.65-3.64-4.55-9.08-2.79-13.96v-.01l-2.25-2.24c-.78-.78-.78-2.05 0-2.83s2.05-.78 2.83 0l1.36 1.36c.5-.7 1.07-1.38 1.7-2.01s1.3-1.2 2.01-1.71l-1.35-1.35c-.79-.78-.79-2.05 0-2.83.78-.78 2.04-.78 2.82 0l2.24 2.23c1.35-.49 2.77-.77 4.21-.84 3.75-.2 7.22 1.1 9.77 3.65 2.32 2.3199 3.62 5.47 3.67 8.87.01 1.1-.88 2.01-1.98 2.02zm15.12-20.81c-1.25 1.25-2.89 1.87-4.53 1.87s-3.28-.62-4.53-1.87c-1.21-1.21-1.88-2.82-1.88-4.53s.67-3.32 1.88-4.53 2.82-1.88 4.53-1.88 3.32.67 4.53 1.88 1.88 2.82 1.88 4.53-.67 3.32-1.88 4.53z"/></g><g><path d="m72.22 26.19c0 .64-.25 1.25-.71 1.7-.94.9399-2.46.9399-3.4 0-.46-.45-.71-1.0601-.71-1.7 0-.64.25-1.25.71-1.7.45-.46 1.0601-.71 1.7-.71.64 0 1.25.25 1.7.71.46.45.71 1.06.71 1.7z"/></g></g></svg>