<svg id="Layer_1" enable-background="new 0 0 512 512" height="512" viewBox="0 0 512 512" width="512" xmlns="http://www.w3.org/2000/svg"><g><path d="m456.834 0h-401.668c-30.418 0-55.166 24.748-55.166 55.166v401.667c0 30.419 24.748 55.167 55.166 55.167h401.668c30.419 0 55.166-24.748 55.166-55.167v-401.667c0-30.418-24.747-55.166-55.166-55.166zm25.166 456.833c0 13.877-11.289 25.167-25.166 25.167h-401.668c-13.876 0-25.166-11.29-25.166-25.167v-401.667c0-13.876 11.29-25.166 25.166-25.166h401.668c13.877 0 25.166 11.29 25.166 25.166z"/><path d="m150.902 194.165h-72.457c-8.284 0-15 6.716-15 15v230.394c0 8.284 6.716 15 15 15h72.457c8.284 0 15-6.716 15-15v-230.394c0-8.284-6.715-15-15-15zm-15 230.394h-42.457v-200.394h42.457z"/><path d="m347.522 194.165c-16.212 0-32.033 3.694-46.358 10.659-1.861-6.168-7.587-10.659-14.362-10.659h-72.458c-8.284 0-15 6.716-15 15v230.394c0 8.284 6.716 15 15 15h72.458c8.284 0 15-6.716 15-15v-133.956c0-13.481 10.966-24.448 24.445-24.448 13.48 0 24.447 10.967 24.447 24.448v133.956c0 8.284 6.716 15 15 15h72.936c8.284 0 15-6.716 15-15v-139.288c-.001-58.507-47.6-106.106-106.108-106.106zm76.107 230.394h-42.936v-118.956c0-30.023-24.425-54.448-54.447-54.448-30.021 0-54.445 24.425-54.445 54.448v118.956h-42.458v-200.394h42.458v8.202c0 5.916 3.478 11.279 8.878 13.694 5.4 2.414 11.716 1.429 16.125-2.516 13.966-12.497 31.978-19.38 50.718-19.38 41.966 0 76.107 34.141 76.107 76.105z"/><path d="m114.674 57.441c-28.248 0-51.229 22.981-51.229 51.229s22.981 51.229 51.229 51.229 51.229-22.981 51.229-51.229-22.982-51.229-51.229-51.229zm0 72.457c-11.706 0-21.229-9.523-21.229-21.229s9.523-21.229 21.229-21.229 21.229 9.523 21.229 21.229-9.524 21.229-21.229 21.229z"/></g></svg>